<svg width="115" height="39" viewBox="0 0 500 178" fill="none" xmlns="http://www.w3.org/2000/svg">
<path d="M81.3212 38.5018C66.869 38.4904 51.7901 43.4427 36.5709 49.8665C34.6383 50.4585 32.7525 52.3825 31.7554 54.7619C30.8386 57.0046 30.5056 59.2559 30.2194 61.6154C28.7414 74.2182 28.921 86.5932 29.2279 100.306C29.2952 103.445 29.602 107.165 30.5655 109.428C31.572 111.713 33.2969 113.165 35.3567 113.64C37.9882 114.227 40.628 114.726 43.2741 115.134L42.6904 139.89C42.6006 141.86 43.2329 143.496 44.0187 144.438C44.7221 145.252 45.506 145.614 46.3104 145.705C47.9194 145.89 49.807 144.843 50.7443 142.127C54.8508 130.105 57.4269 124.797 62.5624 116.811C75.9538 117.312 87.6446 116.179 100.881 114.69C105.56 114.505 108.772 108.685 109.621 104.037C112.16 91.9924 112.555 77.1241 112.824 62.0935C112.938 56.1365 111.58 50.2877 109.176 47.1968C106.89 44.3762 104.121 43.3545 101.584 42.3071C94.5368 39.8793 87.4875 38.5758 81.3212 38.5018ZM100.572 47.9225C103.113 48.9728 105.352 49.9832 106.765 51.7279C109.122 55.5389 109.043 58.0748 109.01 62.1875C108.744 76.7655 108.284 90.9137 106.121 101.635C105.189 105.634 103.565 108.48 100.497 108.91C87.0123 110.427 75.3121 111.6 61.7579 111.013C61.494 111 61.2311 111.07 60.9856 111.218C60.7401 111.366 60.5171 111.589 60.3305 111.873C54.6356 120.622 51.7228 126.701 47.3824 139.412C47.2814 139.702 47.0625 139.879 46.7931 139.91C46.6116 139.896 46.5387 139.683 46.5275 139.489L47.1149 112.644C47.1504 111.195 46.3647 109.812 45.418 109.656C42.2528 109.196 39.0962 108.607 35.9516 107.891C34.5934 107.575 34.092 107.009 33.7197 106.166C33.0724 103.818 33.0874 102.367 33.0369 100.11C32.7338 86.5192 32.5841 74.6422 33.9555 62.825C34.0827 61.0775 34.513 59.2901 34.9694 57.7959C35.7253 55.9971 36.8833 55.7324 38.0451 55.2429C52.9294 48.9899 67.492 44.3136 81.2015 44.2994C87.9215 44.6694 94.9783 45.694 100.572 47.9225V47.9225ZM49.1635 70.9479C47.113 74.6849 47.3169 79.7596 48.9015 83.1579C49.7284 84.9368 51.0193 86.3684 52.5908 86.6928C54.6319 86.949 55.9265 85.691 57.324 84.2452C59.8553 80.8981 60.1116 75.0578 58.1865 70.8398C57.2062 68.6909 55.6384 67.4016 54.037 67.3105C51.8444 67.3447 50.3552 68.8332 49.1635 70.9451V70.9479ZM71.3441 67.8968C69.3011 67.9965 67.6492 70.1482 66.6408 72.4706C65.4865 75.1261 64.813 78.4504 65.7465 81.7092C67.5425 87.9793 73.7481 87.9025 76.2232 81.5299C77.3644 78.5927 77.0725 75.2542 76.2232 72.8321C75.3776 70.4129 74.0979 68.4405 72.2364 67.9879C71.9416 67.9142 71.6427 67.8837 71.3441 67.8968V67.8968ZM89.3508 68.486C88.7147 68.4632 88.0599 68.5543 87.4463 68.8019C84.9918 69.7981 82.9021 73.6518 83.2182 78.5842C83.3791 81.066 84.1293 83.4852 85.4819 85.1531C86.8346 86.8181 88.7989 87.5638 90.8699 86.9177C93.2496 86.1777 94.7239 83.2604 95.2159 80.4427C95.7079 77.625 95.5844 74.7532 94.4414 72.4251C93.8466 71.2219 93.0789 70.2415 92.197 69.5588C91.315 68.8761 90.3421 68.5091 89.3527 68.486H89.3508ZM53.8705 73.1053C54.3288 73.111 54.6899 73.333 55.0622 74.147C55.8947 75.9742 55.6627 78.7435 54.8227 79.8535C53.9865 80.9635 53.4645 81.0603 53.0978 80.9863C52.7311 80.9095 52.3588 80.5252 52.0258 79.808C51.3897 78.4419 51.2027 76.2332 52.0389 74.6565C52.4842 73.7571 53.3017 73.1964 53.8723 73.1053H53.8705ZM71.6116 73.74C71.6827 73.7571 72.4796 74.4601 72.8613 75.5502C73.2429 76.6402 73.314 77.6535 72.9511 78.5842C71.8716 81.362 69.5761 80.6106 69.2281 79.401C69.0972 78.9399 69.1963 77.0871 69.8268 75.6441C70.4535 74.1954 71.243 73.6518 71.6116 73.7372V73.74ZM91.3751 75.8689C91.4911 76.1052 91.7736 77.6905 91.5547 78.9485C91.3339 80.2065 90.9747 80.9835 90.0954 81.2567C88.9692 81.6096 88.3368 81.2567 87.8635 80.6675C87.3883 80.0841 87.0684 79.0965 86.9992 78.0405C86.8308 75.4221 87.4482 74.8159 88.4285 74.4174C89.5697 73.9905 90.8606 74.7362 91.3751 75.8689V75.8689Z" fill="#FFFDFE"/>
<path d="M136.779 50.2194C136.809 49.4794 136.986 48.8134 137.316 48.2242C137.476 47.9354 137.677 47.7058 137.905 47.553C138.132 47.4001 138.379 47.3279 138.627 47.3419H151.397C151.828 47.3419 152.271 47.6151 152.73 48.1588C152.944 48.3933 153.119 48.7029 153.239 49.0615C153.359 49.4201 153.42 49.8172 153.418 50.2194V81.2225H174.785V50.2194C174.785 49.4338 174.964 48.7593 175.322 48.1929C175.681 47.6237 176.145 47.3391 176.719 47.3391H189.317C189.89 47.3391 190.391 47.5582 190.822 47.9937C191.252 48.432 191.467 49.1293 191.467 50.0885V141.592C191.467 142.551 191.28 143.272 190.906 143.75C190.535 144.231 190.047 144.47 189.446 144.47H176.719C176.147 144.47 175.681 144.231 175.322 143.75C174.964 143.272 174.785 142.554 174.785 141.592V104.441H153.418V141.592C153.418 142.509 153.223 143.215 152.838 143.718C152.451 144.219 151.927 144.47 151.267 144.47H138.627C137.424 144.47 136.809 143.619 136.779 141.92V50.2194ZM254.407 143.36C254.035 143.838 253.64 144.142 253.225 144.273C252.837 144.401 252.441 144.467 252.045 144.473H245.553C245.036 144.473 244.591 144.33 244.219 144.046C243.845 143.761 243.53 143.38 243.272 142.902C243.008 142.405 242.791 141.854 242.629 141.265C242.455 140.65 242.312 140.016 242.198 139.369L240.866 130.996C240.436 132.348 239.813 133.885 238.996 135.607C238.111 137.434 237.062 139.063 235.879 140.445C234.618 141.954 233.112 143.217 231.364 144.242C229.615 145.267 227.61 145.779 225.344 145.779C222.078 145.779 219.11 144.82 216.444 142.902C213.834 141.046 211.512 138.371 209.631 135.052C207.754 131.739 206.299 127.868 205.268 123.44C204.235 119.017 203.719 114.295 203.719 109.283V66.4396C203.719 64.7831 203.957 63.5308 204.43 62.6798C204.901 61.8288 205.654 61.4048 206.686 61.4048H216.617C217.851 61.4048 218.695 61.7178 219.153 62.3525C219.612 62.9844 219.842 64.2168 219.842 66.0468V108.625C219.842 110.504 220.123 112.28 220.68 113.959C221.239 115.638 221.977 117.118 222.895 118.405C223.812 119.691 224.85 120.707 226.012 121.447C227.172 122.187 228.354 122.557 229.559 122.557C230.59 122.557 231.658 122.187 232.762 121.447C233.873 120.698 234.902 119.694 235.813 118.47C236.745 117.229 237.512 115.766 238.114 114.087C238.717 112.408 239.016 110.632 239.016 108.759V66.2432C239.016 65.5032 239.11 64.7632 239.297 64.0204C239.484 63.2804 239.763 62.7111 240.135 62.3184C240.507 61.9711 240.859 61.7321 241.188 61.6011C241.517 61.4702 241.899 61.4019 242.327 61.4019H252.045C253.276 61.4019 254.164 61.863 254.709 62.7766C255.253 63.6931 255.526 64.9141 255.526 66.4396V139.631C255.526 140.457 255.405 141.222 255.161 141.92C254.918 142.617 254.581 143.163 254.151 143.553L254.407 143.36V143.36ZM304.323 134.332C303.549 135.51 302.696 136.774 301.766 138.126C300.834 139.478 299.809 140.744 298.692 141.92C297.568 143.103 296.356 144.08 295.081 144.831C293.75 145.606 292.335 145.994 290.909 145.975C287.012 145.975 283.422 144.865 280.139 142.64C276.938 140.503 274.057 137.399 271.67 133.515C269.305 129.656 267.456 125.11 266.124 119.876C264.791 114.645 264.125 109.021 264.125 103.001C264.125 96.939 264.791 91.3036 266.124 86.0951C267.456 80.8867 269.305 76.3499 271.67 72.4905C274.054 68.6105 276.937 65.5164 280.139 63.3999C283.422 61.197 287.012 60.0955 290.909 60.0955C292.486 60.0955 293.927 60.4456 295.231 61.1429C296.489 61.8061 297.688 62.7068 298.799 63.824C299.874 64.9141 300.862 66.1464 301.766 67.5183C302.667 68.893 303.521 70.2335 304.323 71.5428V41.6496C304.323 40.255 304.604 39.0795 305.161 38.1204C305.721 37.1584 306.559 36.6802 307.678 36.6802H317.35C317.724 36.6802 318.117 36.7998 318.532 37.0388C318.947 37.2808 319.327 37.6166 319.673 38.0549C320.016 38.4904 320.294 39.0141 320.51 39.6231C320.725 40.2351 320.833 40.9096 320.833 41.6496V139.435C320.833 142.793 319.673 144.473 317.35 144.473H308.924C308.351 144.473 307.906 144.359 307.591 144.142C307.279 143.929 307.006 143.604 306.795 143.195C306.555 142.715 306.36 142.187 306.215 141.626C306.012 140.888 305.797 140.157 305.571 139.435L304.323 134.332V134.332ZM279.602 103.001C279.588 105.752 279.886 108.485 280.483 111.082C281.071 113.586 281.909 115.758 282.999 117.588C284.1 119.432 285.439 120.913 286.932 121.937C288.466 123.007 290.165 123.539 292.028 123.539C293.861 123.539 295.588 123.038 297.208 122.036C298.782 121.077 300.219 119.667 301.442 117.881C302.657 116.093 303.642 113.975 304.346 111.637C305.075 109.237 305.485 106.664 305.571 103.918V103.001C305.577 100.264 305.226 97.5525 304.538 95.0235C303.872 92.5443 302.902 90.2803 301.68 88.3521C300.454 86.4262 298.994 84.8823 297.38 83.8068C295.694 82.6827 293.87 82.1143 292.028 82.139C290.165 82.139 288.466 82.694 286.932 83.8068C285.398 84.9168 284.088 86.4338 282.999 88.3521C281.893 90.3158 281.039 92.5791 280.483 95.0235C279.893 97.5868 279.595 100.285 279.604 103.001H279.602ZM370.749 134.332C369.974 135.51 369.121 136.774 368.19 138.126C367.258 139.478 366.233 140.744 365.116 141.92C363.992 143.103 362.78 144.08 361.505 144.831C360.174 145.606 358.759 145.994 357.333 145.975C353.436 145.975 349.846 144.865 346.565 142.64C343.363 140.503 340.481 137.399 338.094 133.515C335.731 129.656 333.88 125.11 332.548 119.876C331.216 114.645 330.548 109.021 330.548 103.001C330.548 96.939 331.216 91.3036 332.548 86.0951C333.88 80.8867 335.729 76.3499 338.094 72.4905C340.478 68.6102 343.362 65.5161 346.565 63.3999C349.846 61.197 353.436 60.0955 357.333 60.0955C358.91 60.0955 360.351 60.4456 361.655 61.1429C362.913 61.8061 364.112 62.7068 365.223 63.824C366.298 64.9141 367.286 66.1464 368.19 67.5183C369.093 68.893 369.944 70.2335 370.747 71.5428V41.6496C370.747 40.255 371.028 39.0795 371.585 38.1204C372.146 37.1584 372.983 36.6802 374.101 36.6802H383.774C384.148 36.6802 384.541 36.7998 384.956 37.0388C385.373 37.2808 385.753 37.6166 386.097 38.0549C386.44 38.4904 386.72 39.0141 386.935 39.6231C387.149 40.2351 387.257 40.9096 387.257 41.6496V139.435C387.257 142.793 386.097 144.473 383.774 144.473H375.347C374.775 144.473 374.33 144.359 374.015 144.142C373.704 143.929 373.431 143.604 373.22 143.195C372.981 142.715 372.786 142.187 372.64 141.626C372.437 140.888 372.222 140.157 371.995 139.435L370.747 134.332H370.749ZM346.026 103.001C346.012 105.752 346.31 108.485 346.907 111.082C347.496 113.586 348.334 115.758 349.423 117.588C350.525 119.433 351.864 120.913 353.358 121.937C354.892 123.007 356.589 123.539 358.452 123.539C360.285 123.539 362.012 123.038 363.632 122.036C365.206 121.078 366.644 119.667 367.868 117.881C369.082 116.092 370.065 113.974 370.768 111.637C371.499 109.237 371.909 106.664 371.995 103.918V103.001C372.001 100.264 371.65 97.5525 370.962 95.0235C370.296 92.5443 369.326 90.2803 368.104 88.3521C366.878 86.4262 365.418 84.8823 363.804 83.8068C362.118 82.6827 360.293 82.1143 358.452 82.139C356.589 82.139 354.89 82.694 353.358 83.8068C351.824 84.9168 350.512 86.4338 349.423 88.3521C348.317 90.3158 347.463 92.5791 346.907 95.0235C346.316 97.5868 346.019 100.285 346.028 103.001H346.026ZM398.695 41.7151C398.695 40.3205 398.924 39.145 399.382 38.1858C399.842 37.2238 400.63 36.7457 401.747 36.7457H412.28C412.568 36.7457 412.869 36.8652 413.183 37.1043C413.514 37.3621 413.812 37.706 414.064 38.1204C414.337 38.5558 414.566 39.0795 414.753 39.6886C414.94 40.3005 415.033 40.9751 415.033 41.7151V139.435C415.033 141.091 414.725 142.344 414.107 143.195C413.492 144.046 412.697 144.47 411.722 144.47H401.747C400.63 144.47 399.842 144.043 399.382 143.195C398.924 142.344 398.695 141.089 398.695 139.435V41.7151ZM471.097 134.528C468.604 138.031 465.722 140.833 462.584 142.802C459.407 144.794 456.002 145.806 452.566 145.779C448.637 145.779 444.927 144.689 441.431 142.506C438.013 140.405 434.891 137.331 432.23 133.449C429.58 129.561 427.449 124.93 425.953 119.811C424.404 114.579 423.632 108.89 423.632 102.739C423.632 98.9028 423.939 95.1858 424.556 91.5882C425.152 88.0683 426.033 84.6744 427.179 81.4844C428.311 78.3445 429.698 75.4329 431.306 72.8178C432.91 70.1983 434.739 67.9207 436.744 66.0468C438.784 64.1489 440.982 62.6748 443.279 61.6638C445.696 60.6037 448.2 60.0756 450.716 60.0955C453.096 60.0955 455.402 60.5765 457.638 61.5357C459.874 62.4948 461.975 63.8468 463.937 65.5886C465.901 67.3333 467.697 69.4281 469.333 71.8701C470.945 74.2714 472.36 76.9617 473.546 79.882C474.721 82.781 475.64 85.9037 476.277 89.169C476.921 92.462 477.244 95.8518 477.244 99.3383C477.244 101.607 477.222 103.46 477.179 104.9C477.136 106.337 476.913 107.484 476.513 108.332C476.111 109.186 475.446 109.772 474.513 110.097C473.581 110.427 472.212 110.589 470.408 110.589H439.453C439.74 113.378 440.32 115.712 441.193 117.591C442.003 119.369 443.032 120.889 444.224 122.068C445.371 123.181 446.589 123.975 447.88 124.458C449.074 124.919 450.301 125.16 451.533 125.176C452.566 125.176 453.625 125.011 454.714 124.686C455.787 124.366 456.844 123.928 457.876 123.377C458.841 122.867 459.775 122.232 460.669 121.479C461.514 120.761 462.195 120.007 462.712 119.224C463.17 118.655 463.565 118.231 463.894 117.946C464.223 117.662 464.575 117.522 464.947 117.522C465.321 117.522 465.699 117.722 466.088 118.112C466.56 118.613 466.998 119.182 467.398 119.811L471.955 127.66C472.27 128.23 472.472 128.742 472.558 129.197C472.644 129.656 472.687 130.125 472.687 130.603C472.687 131.477 472.528 132.228 472.214 132.86C471.896 133.496 471.519 134.058 471.095 134.528H471.097ZM450.417 80.0442C449.298 80.0442 448.216 80.3829 447.171 81.0574C446.109 81.7468 445.117 82.6609 444.224 83.7727C443.307 84.9054 442.484 86.1919 441.753 87.6321C441.055 88.9898 440.456 90.4596 439.968 92.0151H461.937C461.361 90.3753 460.708 88.801 459.982 87.3048C459.292 85.8851 458.483 84.6096 457.574 83.5108C456.645 82.3992 455.598 81.5368 454.478 80.9607C453.318 80.3488 451.964 80.0442 450.417 80.0442Z" fill="#FDFFFF"/>
</svg>
